<svg width="10" height="13" viewBox="0 0 10 13" fill="none" xmlns="http://www.w3.org/2000/svg">
<path d="M9.11547 0.00270009L7.08599 0C4.80593 0 3.33245 1.25352 3.33245 3.19367V4.66617H1.2919C1.11557 4.66617 0.972778 4.7847 0.972778 4.93092V7.06439C0.972778 7.21063 1.11573 7.32901 1.2919 7.32901H3.33245V12.7125C3.33245 12.8587 3.47524 12.9771 3.65157 12.9771H6.31392C6.49025 12.9771 6.63304 12.8585 6.63304 12.7125V7.32901H9.01893C9.19525 7.32901 9.33804 7.21063 9.33804 7.06439L9.33902 4.93092C9.33902 4.86071 9.30532 4.79348 9.24556 4.74379C9.18581 4.69411 9.1044 4.66617 9.01973 4.66617H6.63304V3.41791C6.63304 2.81796 6.80546 2.51338 7.748 2.51338L9.11515 2.51298C9.29131 2.51298 9.4341 2.39444 9.4341 2.24837V0.267309C9.4341 0.12137 9.29148 0.0029701 9.11547 0.00270009Z" fill="white"/>
</svg>
