<svg width="17" height="11" viewBox="0 0 17 11" fill="none" xmlns="http://www.w3.org/2000/svg">
<path d="M16.1059 1.5457C15.4902 1.76529 14.8744 1.90243 14.259 1.95751C14.954 1.61169 15.4243 1.12312 15.6692 0.491858C15.0334 0.804691 14.3549 1.01872 13.6334 1.13405C12.9977 0.57414 12.2167 0.294067 11.2897 0.294067C10.4027 0.294067 9.64642 0.553401 9.0205 1.07219C8.39505 1.59095 8.08223 2.21806 8.08223 2.95361C8.08223 3.1512 8.10867 3.35438 8.16167 3.56296C6.85082 3.50807 5.62115 3.23499 4.47245 2.74368C3.32382 2.25232 2.34899 1.5977 1.54798 0.7798C1.25667 1.19142 1.11098 1.63888 1.11098 2.12194C1.11098 2.57756 1.24005 3.0003 1.49837 3.39006C1.75652 3.77976 2.10417 4.09536 2.54113 4.33693C2.02466 4.32043 1.54139 4.20787 1.09129 3.99926V4.03219C1.09129 4.67451 1.33458 5.23843 1.82111 5.7244C2.30771 6.21031 2.92178 6.51616 3.66319 6.64248C3.38511 6.70279 3.10369 6.73299 2.81906 6.73299C2.63368 6.73299 2.43174 6.71929 2.21331 6.69203C2.41853 7.22439 2.7959 7.66203 3.34531 8.00531C3.89482 8.34835 4.51714 8.52523 5.21229 8.53647C4.04718 9.29384 2.71983 9.6726 1.23028 9.6726C0.945559 9.6726 0.687436 9.66181 0.455688 9.63979C1.94528 10.4356 3.58708 10.8336 5.38119 10.8336C6.51987 10.8336 7.58906 10.6841 8.58835 10.3849C9.58823 10.0858 10.4421 9.68506 11.1506 9.18265C11.8589 8.68039 12.4696 8.10265 12.9827 7.44944C13.4957 6.79615 13.8779 6.11415 14.1297 5.40329C14.3812 4.69227 14.5069 3.98017 14.5069 3.26642C14.5069 3.1127 14.5036 2.99748 14.497 2.92059C15.1261 2.542 15.6623 2.08355 16.1059 1.5457Z" fill="white"/>
</svg>
