<svg width="19" height="9" viewBox="0 0 19 9" fill="none" xmlns="http://www.w3.org/2000/svg">
<path d="M18.0191 7.48844C17.9981 7.45081 17.9784 7.41954 17.9602 7.39453C17.6584 6.94401 17.0819 6.39098 16.2309 5.73532L16.2129 5.7203L16.2039 5.71294L16.1947 5.7054H16.1856C15.7994 5.40009 15.5548 5.1948 15.4523 5.08971C15.2649 4.8895 15.223 4.68684 15.3254 4.48151C15.3977 4.32636 15.6696 3.99873 16.1402 3.49816C16.3878 3.23287 16.5838 3.02025 16.7287 2.86006C17.773 1.70888 18.2258 0.973251 18.0868 0.652908L18.0329 0.578043C17.9967 0.532979 17.9031 0.491746 17.7523 0.454146C17.6013 0.416621 17.4082 0.41042 17.1728 0.435426L14.5653 0.45036C14.5231 0.437949 14.4627 0.439104 14.3842 0.454146C14.3057 0.469187 14.2664 0.476727 14.2664 0.476727L14.221 0.495531L14.185 0.518121C14.1549 0.533056 14.1217 0.559323 14.0854 0.59687C14.0493 0.634287 14.0192 0.678204 13.995 0.728239C13.7112 1.33383 13.3884 1.89689 13.0262 2.41737C12.8029 2.72772 12.5978 2.99669 12.4105 3.22443C12.2233 3.45209 12.0664 3.61982 11.9397 3.72735C11.8128 3.83497 11.6985 3.92119 11.5956 3.98632C11.493 4.05148 11.4146 4.07901 11.3603 4.06893C11.306 4.05887 11.2548 4.04888 11.2063 4.03889C11.1218 3.99382 11.0539 3.93253 11.0028 3.85495C10.9512 3.77739 10.9166 3.67975 10.8986 3.56213C10.8805 3.44444 10.8699 3.3432 10.8668 3.25809C10.864 3.17308 10.8653 3.05283 10.8714 2.89769C10.8777 2.74247 10.8805 2.63745 10.8805 2.58239C10.8805 2.39218 10.885 2.18574 10.8939 1.96302C10.9031 1.7403 10.9104 1.56384 10.9166 1.43383C10.9228 1.3037 10.9257 1.16603 10.9257 1.02088C10.9257 0.875728 10.915 0.761894 10.8939 0.679283C10.8732 0.596763 10.8413 0.516676 10.7992 0.439027C10.7568 0.361456 10.6948 0.301449 10.6136 0.258855C10.5321 0.216307 10.4308 0.182544 10.3103 0.15746C9.99034 0.0974286 9.5829 0.0649546 9.08787 0.059906C7.96526 0.0499144 7.24393 0.110024 6.92402 0.240158C6.79727 0.29514 6.68257 0.370265 6.58002 0.465295C6.47134 0.575443 6.45619 0.635549 6.53464 0.645437C6.89685 0.690432 7.15326 0.798057 7.30418 0.968204L7.35856 1.05838C7.40087 1.12342 7.4431 1.2386 7.48537 1.40373C7.52759 1.56886 7.55482 1.75153 7.56681 1.95163C7.59693 2.31705 7.59693 2.62986 7.56681 2.89006C7.53658 3.15038 7.50805 3.35304 7.48081 3.49819C7.45357 3.64334 7.41285 3.76095 7.35856 3.85101C7.30418 3.9411 7.26799 3.99616 7.24986 4.01614C7.23175 4.03613 7.21665 4.04872 7.20467 4.05366C7.12621 4.07859 7.04462 4.09129 6.96017 4.09129C6.8756 4.09129 6.77305 4.05621 6.65235 3.98612C6.53169 3.91601 6.40646 3.81972 6.27666 3.69708C6.14687 3.57442 6.0005 3.403 5.83746 3.18281C5.67456 2.96261 5.50554 2.70237 5.3305 2.40209L5.18567 2.18432C5.09513 2.04421 4.97146 1.84022 4.81452 1.57251C4.65749 1.3047 4.51868 1.04565 4.39802 0.795396C4.34979 0.690294 4.27733 0.610283 4.18077 0.555224L4.13546 0.532635C4.10533 0.512653 4.05697 0.491433 3.99063 0.468813C3.9242 0.446231 3.85487 0.430034 3.78238 0.420063L1.30163 0.434997C1.04813 0.434997 0.876133 0.482623 0.785563 0.57773L0.749317 0.622717C0.73121 0.647777 0.722076 0.687801 0.722076 0.742883C0.722076 0.79795 0.740184 0.865527 0.77643 0.945538C1.13857 1.65129 1.5324 2.33193 1.9579 2.98756C2.3834 3.64321 2.75316 4.17133 3.06694 4.57149C3.38078 4.97193 3.70069 5.34987 4.02666 5.70511C4.35261 6.06048 4.56837 6.28822 4.67395 6.38827C4.77964 6.48851 4.86266 6.56344 4.923 6.61348L5.14939 6.79363C5.29425 6.91378 5.50696 7.05766 5.78764 7.2253C6.06838 7.393 6.37919 7.5581 6.72021 7.72091C7.06129 7.88348 7.45811 8.01609 7.91084 8.11871C8.36353 8.22133 8.80412 8.26255 9.23273 8.24267H10.2739C10.485 8.22753 10.645 8.17254 10.7538 8.07749L10.7898 8.03987C10.8141 8.00997 10.8368 7.96363 10.8576 7.90107C10.8788 7.8386 10.8893 7.7697 10.8893 7.69468C10.8832 7.47949 10.9029 7.28556 10.9481 7.11297C10.9933 6.94033 11.0446 6.8102 11.1022 6.72256C11.1596 6.635 11.2246 6.56111 11.2968 6.5012C11.3691 6.44118 11.4206 6.40481 11.451 6.39229C11.481 6.3797 11.505 6.37116 11.5231 6.36603C11.668 6.32601 11.8385 6.36476 12.0347 6.48248C12.231 6.6001 12.4151 6.74533 12.5872 6.91793C12.7592 7.09071 12.9659 7.28457 13.2073 7.49968C13.4489 7.71494 13.6601 7.87492 13.841 7.98014L14.022 8.0703C14.143 8.13033 14.2999 8.18547 14.493 8.23548C14.686 8.28549 14.8548 8.29803 14.9999 8.27303L17.3176 8.24305C17.5469 8.24305 17.7252 8.21154 17.8517 8.14907C17.9785 8.08651 18.0539 8.01761 18.0781 7.94267C18.1024 7.86766 18.1037 7.78247 18.0827 7.68726C18.0612 7.59229 18.0401 7.52591 18.0191 7.48844Z" fill="white"/>
</svg>
