<svg width="18" height="10" viewBox="0 0 18 10" fill="none" xmlns="http://www.w3.org/2000/svg">
<path d="M16.7865 1.03406C16.1902 0.446295 15.0892 0.206543 12.9866 0.206543H5.35424C3.20353 0.206543 2.08392 0.461757 1.48985 1.08751C0.910645 1.69763 0.910645 2.59659 0.910645 3.84076V6.21216C0.910645 8.62252 1.59786 9.84635 5.35424 9.84635H12.9866C14.8099 9.84635 15.8203 9.63483 16.474 9.11606C17.1444 8.5842 17.4304 7.71573 17.4304 6.21216V3.84076C17.4304 2.52867 17.3856 1.62442 16.7865 1.03406ZM11.5164 5.35386L8.05052 6.85576C7.97304 6.88935 7.8883 6.90601 7.80367 6.90601C7.70786 6.90601 7.61226 6.88461 7.52759 6.84211C7.36815 6.76201 7.27079 6.61871 7.27079 6.46415V3.46996C7.27079 3.31565 7.36788 3.1725 7.527 3.09235C7.68618 3.0122 7.88414 3.00672 8.04929 3.07785L11.5152 4.57009C11.6915 4.646 11.8022 4.79694 11.8025 4.96162C11.8027 5.12643 11.6924 5.27759 11.5164 5.35386Z" fill="white"/>
</svg>
